<?xml version="1.0" encoding="utf-8"?>
<!-- Generator: Adobe Illustrator 22.1.0, SVG Export Plug-In . SVG Version: 6.00 Build 0)  -->
<svg version="1.1" id="Layer_1" xmlns="http://www.w3.org/2000/svg" xmlns:xlink="http://www.w3.org/1999/xlink" x="0px" y="0px"
	 width="30px" height="30px" viewBox="0 0 30 30" style="enable-background:new 0 0 30 30;" xml:space="preserve">
<g>
	<path d="M15,21.2C15,21.2,15,21.2,15,21.2c-1.7,0-6.6-4.5-6.6-8.7c0-2,1.7-3.8,3.6-3.8c1.5,0,2.5,1,3.1,1.8
		c0.5-0.8,1.6-1.8,3.1-1.8c1.9,0,3.6,1.8,3.6,3.8C21.6,16.8,16.7,21.2,15,21.2C15,21.2,15,21.2,15,21.2z M11.9,9.8
		c-1.4,0-2.6,1.3-2.6,2.8c0,3.8,4.6,7.6,5.6,7.7c1,0,5.6-3.9,5.6-7.7c0-1.5-1.2-2.8-2.6-2.8c-1.7,0-2.6,1.9-2.6,2
		c-0.2,0.4-0.8,0.4-0.9,0C14.5,11.7,13.6,9.8,11.9,9.8z"/>
</g>
</svg>
