<?xml version="1.0" encoding="utf-8"?>
<!-- Generator: Adobe Illustrator 22.1.0, SVG Export Plug-In . SVG Version: 6.00 Build 0)  -->
<svg version="1.1" id="Layer_1" xmlns="http://www.w3.org/2000/svg" xmlns:xlink="http://www.w3.org/1999/xlink" x="0px" y="0px"
	 width="30px" height="30px" viewBox="0 0 30 30" style="enable-background:new 0 0 30 30;" xml:space="preserve">
<g>
	<path d="M16.4,8.5L16.4,8.5l-2.7,0l0,0l0,0c-2.9,0-5.1,2.3-5.1,5.1c0,2.7,2.1,4.7,4.9,4.9V21c0,0.1,0,0.2,0.1,0.3
		c0.1,0.1,0.3,0.2,0.4,0.2c0.1,0,0.2,0,0.3-0.1c0.2-0.1,4.3-2.7,5.3-3.6c1.3-1.1,2-2.6,2-4.2v0c0,0,0,0,0,0c0,0,0,0,0,0
		C21.5,10.8,19.2,8.5,16.4,8.5z M18.9,17c-0.7,0.6-3.2,2.2-4.5,3.1V18c0-0.3-0.2-0.5-0.5-0.5c0,0-0.2,0-0.3,0
		c-2.4,0-4.2-1.6-4.2-3.9c0-2.3,1.8-4.1,4.1-4.1l2.7,0h0c2.3,0,4.1,1.8,4.1,4.1C20.5,14.9,19.9,16.2,18.9,17z"/>
</g>
</svg>
