<?xml version="1.0" encoding="utf-8"?>
<!-- Generator: Adobe Illustrator 22.1.0, SVG Export Plug-In . SVG Version: 6.00 Build 0)  -->
<svg version="1.1" id="Layer_1" xmlns="http://www.w3.org/2000/svg" xmlns:xlink="http://www.w3.org/1999/xlink" x="0px" y="0px"
	 width="30px" height="30px" viewBox="0 0 30 30" style="enable-background:new 0 0 30 30;" xml:space="preserve">
<style type="text/css">
	.st0{fill:#1DA1F2;}
</style>
<path class="st0" d="M9.8,26.4c-3.2,0-6.3-1-8.8-2.6c0.4,0.1,0.9,0.1,1.4,0.1c2.7,0,5.2-0.9,7.1-2.5c-2.5,0-4.6-1.7-5.4-4
	c0.3,0.1,0.7,0.1,1.1,0.1c0.5,0,1-0.1,1.5-0.2c-2.6-0.5-4.6-2.8-4.6-5.6c0,0,0,0,0-0.1c0.8,0.4,1.7,0.7,2.6,0.7
	c-1.5-1-2.6-2.8-2.6-4.8c0-1.1,0.3-2,0.8-2.9c2.8,3.5,7.1,5.8,11.8,6c-0.1-0.4-0.1-0.9-0.1-1.3c0-3.2,2.6-5.7,5.7-5.7
	c1.7,0,3.1,0.7,4.2,1.8c1.3-0.3,2.5-0.7,3.6-1.4c-0.4,1.3-1.3,2.5-2.5,3.2C26.9,7.1,28,6.8,29,6.3c-0.8,1.2-1.7,2.2-2.9,3
	c0,0.2,0,0.5,0,0.7C26.2,17.6,20.4,26.4,9.8,26.4"/>
</svg>
