<?xml version="1.0" encoding="utf-8"?>
<!-- Generator: Adobe Illustrator 22.1.0, SVG Export Plug-In . SVG Version: 6.00 Build 0)  -->
<svg version="1.1" id="Layer_1" xmlns="http://www.w3.org/2000/svg" xmlns:xlink="http://www.w3.org/1999/xlink" x="0px" y="0px"
	 width="30px" height="30px" viewBox="0 0 30 30" style="enable-background:new 0 0 30 30;" xml:space="preserve">
<style type="text/css">
	.st0{fill:#020203;}
</style>
<g>
	<path class="st0" d="M23.4,17.2c-0.2-0.2-0.5-0.2-0.7,0L21,18.9v-7.2c0-1.4-1.1-2.5-2.5-2.5h-4.4c-0.3,0-0.5,0.2-0.5,0.5
		c0,0.3,0.2,0.5,0.5,0.5h4.4c0.8,0,1.5,0.7,1.5,1.5v7.2l-1.7-1.7c-0.2-0.2-0.5-0.2-0.7,0c-0.2,0.2-0.2,0.5,0,0.7l2.5,2.5
		c0.1,0.1,0.2,0.1,0.3,0.1c0.1,0,0.3-0.1,0.3-0.1l2.5-2.5C23.6,17.7,23.6,17.4,23.4,17.2z"/>
	<path class="st0" d="M15.8,19.7h-4.4c-0.8,0-1.5-0.7-1.5-1.5v-7.2l1.7,1.7c0.1,0.1,0.2,0.1,0.3,0.1c0.1,0,0.3,0,0.3-0.1
		c0.2-0.2,0.2-0.5,0-0.7L9.8,9.5c-0.2-0.2-0.5-0.2-0.7,0l-2.5,2.5c-0.2,0.2-0.2,0.5,0,0.7c0.2,0.2,0.5,0.2,0.7,0L9,11.1v7.2
		c0,1.4,1.1,2.5,2.5,2.5h4.4c0.3,0,0.5-0.2,0.5-0.5C16.3,20,16.1,19.7,15.8,19.7z"/>
</g>
</svg>
