<?xml version="1.0" encoding="utf-8"?>
<!-- Generator: Adobe Illustrator 22.1.0, SVG Export Plug-In . SVG Version: 6.00 Build 0)  -->
<svg version="1.1" id="Layer_1" xmlns="http://www.w3.org/2000/svg" xmlns:xlink="http://www.w3.org/1999/xlink" x="0px" y="0px"
	 width="30px" height="30px" viewBox="0 0 30 30" style="enable-background:new 0 0 30 30;" xml:space="preserve">
<style type="text/css">
	.st0{fill:#020203;}
</style>
<path class="st0" d="M20.1,9H9.9c-0.8,0-1.5,0.7-1.5,1.5v9c0,0.8,0.7,1.5,1.5,1.5h10.2c0.8,0,1.5-0.7,1.5-1.5v-9
	C21.6,9.7,20.9,9,20.1,9z M9.9,10h10.2c0.3,0,0.5,0.2,0.5,0.5v0.8l-5.3,3.5c-0.2,0.1-0.4,0.1-0.6,0l-5.3-3.5v-0.8
	C9.4,10.2,9.6,10,9.9,10z M20.1,20H9.9c-0.3,0-0.5-0.2-0.5-0.5v-7l4.8,3.2c0.3,0.2,0.5,0.3,0.8,0.3c0.3,0,0.6-0.1,0.8-0.3l4.8-3.2v7
	C20.6,19.8,20.4,20,20.1,20z"/>
</svg>
