<?xml version="1.0" encoding="utf-8"?>
<!-- Generator: Adobe Illustrator 22.1.0, SVG Export Plug-In . SVG Version: 6.00 Build 0)  -->
<svg version="1.1" id="Layer_1" xmlns="http://www.w3.org/2000/svg" xmlns:xlink="http://www.w3.org/1999/xlink" x="0px" y="0px"
	 viewBox="0 0 1920 1080" style="enable-background:new 0 0 1920 1080;" xml:space="preserve">
<style type="text/css">
	.st0{fill:#00A2F9;}
</style>
<path class="st0" d="M0,0v1080h1920V0H0z M1001.7,518.8c0,0.9,0.1,1.8,0.1,2.8c0,28.2-21.5,60.7-60.7,60.7
	c-12.1,0-23.3-3.5-32.7-9.6c1.7,0.2,3.4,0.3,5.1,0.3c10,0,19.2-3.4,26.5-9.1c-9.3-0.2-17.2-6.3-19.9-14.8c1.3,0.2,2.6,0.4,4,0.4
	c2,0,3.8-0.3,5.6-0.8c-9.8-2-17.1-10.6-17.1-20.9c0-0.1,0-0.2,0-0.3c2.9,1.6,6.1,2.6,9.7,2.7c-5.7-3.8-9.5-10.4-9.5-17.8
	c0-3.9,1.1-7.6,2.9-10.7c10.5,12.9,26.3,21.4,44,22.3c-0.4-1.6-0.6-3.2-0.6-4.9c0-11.8,9.6-21.3,21.3-21.3c6.1,0,11.7,2.6,15.6,6.7
	c4.9-1,9.4-2.7,13.6-5.2c-1.6,5-5,9.2-9.4,11.8c4.3-0.5,8.4-1.7,12.3-3.4C1009.5,512,1005.9,515.8,1001.7,518.8z"/>
</svg>
