<?xml version="1.0" encoding="UTF-8"?>
<svg xmlns="http://www.w3.org/2000/svg" width="640" height="400" viewBox="0 0 640 400" role="img" aria-label="bot-browser">
  <defs>
    <linearGradient id="bg" x1="0%" y1="0%" x2="100%" y2="100%">
      <stop offset="0%" stop-color="#0D9488"/>
      <stop offset="100%" stop-color="#E6FFFA"/>
    </linearGradient>
  </defs>
  <rect width="640" height="400" fill="url(#bg)"/>
  <circle cx="560" cy="60" r="48" fill="#0D9488" opacity="0.15"/>
  <circle cx="80" cy="340" r="64" fill="#0D9488" opacity="0.12"/>
  <line x1="0" y1="320" x2="640" y2="280" stroke="#0D9488" stroke-width="1" opacity="0.2"/>
  <g transform="translate(48, 48) scale(4.5)" fill="#FFFFFF" opacity="0.92">
    <path fill="currentColor" d="M4 4h16a2 2 0 012 2v12a2 2 0 01-2 2H4a2 2 0 01-2-2V6a2 2 0 012-2zm0 4v8h16V8H4zm3 2h4v2H7v-2z"/>
  </g>
  <text x="48" y="340" font-family="system-ui,sans-serif" font-size="13" font-weight="600" fill="rgba(255,255,255,0.75)" letter-spacing="0.08em">AI</text>
  <text x="48" y="372" font-family="system-ui,sans-serif" font-size="22" font-weight="700" fill="#FFFFFF">bot-browser</text>
  <circle cx="600" cy="360" r="4" fill="#0D9488" opacity="0.4"/>
  <circle cx="580" cy="380" r="3" fill="#0D9488" opacity="0.3"/>
  <circle cx="620" cy="370" r="2" fill="#0D9488" opacity="0.35"/>
</svg>
