<?xml version="1.0" encoding="UTF-8"?>
<svg xmlns="http://www.w3.org/2000/svg" width="640" height="400" viewBox="0 0 640 400" role="img" aria-label="codeigniter-log-viewer">
  <defs>
    <linearGradient id="bg" x1="0%" y1="0%" x2="100%" y2="100%">
      <stop offset="0%" stop-color="#777BB4"/>
      <stop offset="100%" stop-color="#EEEEF8"/>
    </linearGradient>
  </defs>
  <rect width="640" height="400" fill="url(#bg)"/>
  <circle cx="560" cy="60" r="48" fill="#777BB4" opacity="0.15"/>
  <circle cx="80" cy="340" r="64" fill="#777BB4" opacity="0.12"/>
  <line x1="0" y1="320" x2="640" y2="280" stroke="#777BB4" stroke-width="1" opacity="0.2"/>
  <g transform="translate(48, 48) scale(4.5)" fill="#FFFFFF" opacity="0.92">
    <path fill="currentColor" d="M8.5 6L4 10.5 8.5 15l1.4-1.4L6.8 10.5l3.1-3.1L8.5 6zm7 0l-1.4 1.4 3.1 3.1-3.1 3.1 1.4 1.4L20 10.5 15.5 6z"/>
  </g>
  <text x="48" y="340" font-family="system-ui,sans-serif" font-size="13" font-weight="600" fill="rgba(255,255,255,0.75)" letter-spacing="0.08em">WEB</text>
  <text x="48" y="372" font-family="system-ui,sans-serif" font-size="22" font-weight="700" fill="#FFFFFF">codeigniter-log-viewer</text>
  <circle cx="600" cy="360" r="4" fill="#777BB4" opacity="0.4"/>
  <circle cx="580" cy="380" r="3" fill="#777BB4" opacity="0.3"/>
  <circle cx="620" cy="370" r="2" fill="#777BB4" opacity="0.35"/>
</svg>
