<?xml version="1.0" encoding="UTF-8"?>
<svg xmlns="http://www.w3.org/2000/svg" width="640" height="400" viewBox="0 0 640 400" role="img" aria-label="developers-cheat-sheet">
  <defs>
    <linearGradient id="bg" x1="0%" y1="0%" x2="100%" y2="100%">
      <stop offset="0%" stop-color="#4338CA"/>
      <stop offset="100%" stop-color="#EEF2FF"/>
    </linearGradient>
  </defs>
  <rect width="640" height="400" fill="url(#bg)"/>
  <circle cx="560" cy="60" r="48" fill="#4338CA" opacity="0.15"/>
  <circle cx="80" cy="340" r="64" fill="#4338CA" opacity="0.12"/>
  <line x1="0" y1="320" x2="640" y2="280" stroke="#4338CA" stroke-width="1" opacity="0.2"/>
  <g transform="translate(48, 48) scale(4.5)" fill="#FFFFFF" opacity="0.92">
    <path fill="currentColor" d="M6 2h12a2 2 0 012 2v16l-4-2-4 2-4-2-4 2V4a2 2 0 012-2zm2 6h8v2H8V8zm0 4h8v2H8v-2z"/>
  </g>
  <text x="48" y="340" font-family="system-ui,sans-serif" font-size="13" font-weight="600" fill="rgba(255,255,255,0.75)" letter-spacing="0.08em">AI</text>
  <text x="48" y="372" font-family="system-ui,sans-serif" font-size="22" font-weight="700" fill="#FFFFFF">developers-cheat-sheet</text>
  <circle cx="600" cy="360" r="4" fill="#4338CA" opacity="0.4"/>
  <circle cx="580" cy="380" r="3" fill="#4338CA" opacity="0.3"/>
  <circle cx="620" cy="370" r="2" fill="#4338CA" opacity="0.35"/>
</svg>
