<?xml version="1.0" encoding="UTF-8"?>
<svg xmlns="http://www.w3.org/2000/svg" width="640" height="400" viewBox="0 0 640 400" role="img" aria-label="htaccess-best-web-security-practices">
  <defs>
    <linearGradient id="bg" x1="0%" y1="0%" x2="100%" y2="100%">
      <stop offset="0%" stop-color="#4A5568"/>
      <stop offset="100%" stop-color="#EDE9FE"/>
    </linearGradient>
  </defs>
  <rect width="640" height="400" fill="url(#bg)"/>
  <circle cx="560" cy="60" r="48" fill="#4A5568" opacity="0.15"/>
  <circle cx="80" cy="340" r="64" fill="#4A5568" opacity="0.12"/>
  <line x1="0" y1="320" x2="640" y2="280" stroke="#4A5568" stroke-width="1" opacity="0.2"/>
  <g transform="translate(48, 48) scale(4.5)" fill="#FFFFFF" opacity="0.92">
    <path fill="currentColor" d="M12 2L4 5v6c0 5.5 3.8 10.7 8 12 4.2-1.3 8-6.5 8-12V5l-8-3zm0 2.2l6 2.3v4.5c0 4.3-2.9 8.4-6 9.5-3.1-1.1-6-5.2-6-9.5V6.5l6-2.3zM11 10h2v5h-2v-5zm0-3h2v2h-2V7z"/>
  </g>
  <text x="48" y="340" font-family="system-ui,sans-serif" font-size="13" font-weight="600" fill="rgba(255,255,255,0.75)" letter-spacing="0.08em">SECURITY</text>
  <text x="48" y="372" font-family="system-ui,sans-serif" font-size="22" font-weight="700" fill="#FFFFFF">htaccess-best-web-security-…</text>
  <circle cx="600" cy="360" r="4" fill="#4A5568" opacity="0.4"/>
  <circle cx="580" cy="380" r="3" fill="#4A5568" opacity="0.3"/>
  <circle cx="620" cy="370" r="2" fill="#4A5568" opacity="0.35"/>
</svg>
