<?xml version="1.0" encoding="UTF-8"?>
<svg xmlns="http://www.w3.org/2000/svg" width="640" height="400" viewBox="0 0 640 400" role="img" aria-label="instagram-data-scraper">
  <defs>
    <linearGradient id="bg" x1="0%" y1="0%" x2="100%" y2="100%">
      <stop offset="0%" stop-color="#D63384"/>
      <stop offset="100%" stop-color="#FCE4F0"/>
    </linearGradient>
  </defs>
  <rect width="640" height="400" fill="url(#bg)"/>
  <circle cx="560" cy="60" r="48" fill="#D63384" opacity="0.15"/>
  <circle cx="80" cy="340" r="64" fill="#D63384" opacity="0.12"/>
  <line x1="0" y1="320" x2="640" y2="280" stroke="#D63384" stroke-width="1" opacity="0.2"/>
  <g transform="translate(48, 48) scale(4.5)" fill="#FFFFFF" opacity="0.92">
    <path fill="currentColor" d="M4 4h6v6H4V4zm10 0h6v6h-6V4zM4 14h6v6H4v-6zm10 0h6v6h-6v-6zM10 10h4v4h-4v-4z"/>
  </g>
  <text x="48" y="340" font-family="system-ui,sans-serif" font-size="13" font-weight="600" fill="rgba(255,255,255,0.75)" letter-spacing="0.08em">AUTOMATION</text>
  <text x="48" y="372" font-family="system-ui,sans-serif" font-size="22" font-weight="700" fill="#FFFFFF">instagram-data-scraper</text>
  <circle cx="600" cy="360" r="4" fill="#D63384" opacity="0.4"/>
  <circle cx="580" cy="380" r="3" fill="#D63384" opacity="0.3"/>
  <circle cx="620" cy="370" r="2" fill="#D63384" opacity="0.35"/>
</svg>
