<?xml version="1.0" encoding="UTF-8"?>
<svg xmlns="http://www.w3.org/2000/svg" width="640" height="400" viewBox="0 0 640 400" role="img" aria-label="jQuery.escapeHtml">
  <defs>
    <linearGradient id="bg" x1="0%" y1="0%" x2="100%" y2="100%">
      <stop offset="0%" stop-color="#FDCB6E"/>
      <stop offset="100%" stop-color="#FFF8E7"/>
    </linearGradient>
  </defs>
  <rect width="640" height="400" fill="url(#bg)"/>
  <circle cx="560" cy="60" r="48" fill="#FDCB6E" opacity="0.15"/>
  <circle cx="80" cy="340" r="64" fill="#FDCB6E" opacity="0.12"/>
  <line x1="0" y1="320" x2="640" y2="280" stroke="#FDCB6E" stroke-width="1" opacity="0.2"/>
  <g transform="translate(48, 48) scale(4.5)" fill="#6C5CE7" opacity="0.85">
    <path fill="currentColor" d="M4 4h16v16H4V4zm10.5 11.5c.3 1.5 1.5 2.5 3.2 2.5 2 0 3.3-1 3.3-2.5 0-1.1-.6-1.8-2.5-2.4l-1-.3c-1.2-.4-1.7-.7-1.7-1.3 0-.6.6-1 1.5-1 1 0 1.5.4 1.8 1.1l1.6-.9c-.6-1.2-1.7-1.9-3.4-1.9-2 0-3.3 1.2-3.3 2.7 0 1.3.8 2 2.4 2.5l1 .3c1.3.4 1.8.8 1.8 1.5 0 .7-.7 1.2-1.8 1.2-1.2 0-2-.6-2.3-1.6l-1.5.8zM9 11.5h2.2l1.3 6.5H10l-1-6.5z"/>
  </g>
  <text x="48" y="340" font-family="system-ui,sans-serif" font-size="13" font-weight="600" fill="rgba(45,52,54,0.65)" letter-spacing="0.08em">AUTOMATION</text>
  <text x="48" y="372" font-family="system-ui,sans-serif" font-size="22" font-weight="700" fill="#2D3436">jQuery.escapeHtml</text>
  <circle cx="600" cy="360" r="4" fill="#FDCB6E" opacity="0.4"/>
  <circle cx="580" cy="380" r="3" fill="#FDCB6E" opacity="0.3"/>
  <circle cx="620" cy="370" r="2" fill="#FDCB6E" opacity="0.35"/>
</svg>
