<?xml version="1.0" encoding="UTF-8"?>
<svg xmlns="http://www.w3.org/2000/svg" width="640" height="400" viewBox="0 0 640 400" role="img" aria-label="noncent">
  <defs>
    <linearGradient id="bg" x1="0%" y1="0%" x2="100%" y2="100%">
      <stop offset="0%" stop-color="#6C5CE7"/>
      <stop offset="100%" stop-color="#EDE9FE"/>
    </linearGradient>
  </defs>
  <rect width="640" height="400" fill="url(#bg)"/>
  <circle cx="560" cy="60" r="48" fill="#6C5CE7" opacity="0.15"/>
  <circle cx="80" cy="340" r="64" fill="#6C5CE7" opacity="0.12"/>
  <line x1="0" y1="320" x2="640" y2="280" stroke="#6C5CE7" stroke-width="1" opacity="0.2"/>
  <g transform="translate(48, 48) scale(4.5)" fill="#FFFFFF" opacity="0.92">
    <path fill="currentColor" d="M12 2a10 10 0 00-3.2 19.5c.5.1.7-.2.7-.5v-1.8c-3 .7-3.6-1.3-3.6-1.3-.5-1.2-1.2-1.5-1.2-1.5-1-.7.1-.7.1-.7 1.1.1 1.7 1.1 1.7 1.1 1 .1.7 1.7 2.5 2.4.8.4 1.4.6 1.7.5-.1-.4-.4-.7-.7-1 0 0-1.8-.7-1.8-2.8 0-.6.2-1.1.6-1.5-.1-.6-.3-1.5.1-2.2 0 0 .5-.2 1.7 1.1.5-.2 1-.3 1.5-.3s1 .1 1.5.3c1.2-1.3 1.7-1.1 1.7-1.1.4.7.2 1.6.1 2.2.4.4.6.9.6 1.5 0 2.1-1.8 2.8-1.8 2.8-.3.3-.5.8-.5 1.3v2c0 .3.2.6.7.5A10 10 0 0012 2z"/>
  </g>
  <text x="48" y="340" font-family="system-ui,sans-serif" font-size="13" font-weight="600" fill="rgba(255,255,255,0.75)" letter-spacing="0.08em">META</text>
  <text x="48" y="372" font-family="system-ui,sans-serif" font-size="22" font-weight="700" fill="#FFFFFF">noncent</text>
  <circle cx="600" cy="360" r="4" fill="#6C5CE7" opacity="0.4"/>
  <circle cx="580" cy="380" r="3" fill="#6C5CE7" opacity="0.3"/>
  <circle cx="620" cy="370" r="2" fill="#6C5CE7" opacity="0.35"/>
</svg>
