<?xml version="1.0" encoding="UTF-8"?>
<svg xmlns="http://www.w3.org/2000/svg" width="640" height="400" viewBox="0 0 640 400" role="img" aria-label="phpjs">
  <defs>
    <linearGradient id="bg" x1="0%" y1="0%" x2="100%" y2="100%">
      <stop offset="0%" stop-color="#777BB4"/>
      <stop offset="100%" stop-color="#EEEEF8"/>
    </linearGradient>
  </defs>
  <rect width="640" height="400" fill="url(#bg)"/>
  <circle cx="560" cy="60" r="48" fill="#777BB4" opacity="0.15"/>
  <circle cx="80" cy="340" r="64" fill="#777BB4" opacity="0.12"/>
  <line x1="0" y1="320" x2="640" y2="280" stroke="#777BB4" stroke-width="1" opacity="0.2"/>
  <g transform="translate(48, 48) scale(4.5)" fill="#FFFFFF" opacity="0.92">
    <path fill="currentColor" d="M4 4h16v16H4V4zm3 5h2.5c2 0 3.5 1.2 3.5 3s-1.5 3-3.5 3H8v2H6V9h1zm2 2v2h1c.8 0 1.5-.5 1.5-1s-.7-1-1.5-1H9zm5-2h4v1.5h-2.5V12H18v1.5h-2.5V15H18V16h-4V9z"/>
  </g>
  <text x="48" y="340" font-family="system-ui,sans-serif" font-size="13" font-weight="600" fill="rgba(255,255,255,0.75)" letter-spacing="0.08em">WEB</text>
  <text x="48" y="372" font-family="system-ui,sans-serif" font-size="22" font-weight="700" fill="#FFFFFF">phpjs</text>
  <circle cx="600" cy="360" r="4" fill="#777BB4" opacity="0.4"/>
  <circle cx="580" cy="380" r="3" fill="#777BB4" opacity="0.3"/>
  <circle cx="620" cy="370" r="2" fill="#777BB4" opacity="0.35"/>
</svg>
