<?xml version="1.0" encoding="UTF-8"?>
<svg xmlns="http://www.w3.org/2000/svg" width="640" height="400" viewBox="0 0 640 400" role="img" aria-label="simple-error-templates">
  <defs>
    <linearGradient id="bg" x1="0%" y1="0%" x2="100%" y2="100%">
      <stop offset="0%" stop-color="#3178C6"/>
      <stop offset="100%" stop-color="#E8F0FE"/>
    </linearGradient>
  </defs>
  <rect width="640" height="400" fill="url(#bg)"/>
  <circle cx="560" cy="60" r="48" fill="#3178C6" opacity="0.15"/>
  <circle cx="80" cy="340" r="64" fill="#3178C6" opacity="0.12"/>
  <line x1="0" y1="320" x2="640" y2="280" stroke="#3178C6" stroke-width="1" opacity="0.2"/>
  <g transform="translate(48, 48) scale(4.5)" fill="#FFFFFF" opacity="0.92">
    <path fill="currentColor" d="M12 2C6.5 2 2 6.5 2 12s4.5 10 10 10 10-4.5 10-10S17.5 2 12 2zm1 15h-2v-2h2v2zm0-4h-2V7h2v6z"/>
  </g>
  <text x="48" y="340" font-family="system-ui,sans-serif" font-size="13" font-weight="600" fill="rgba(255,255,255,0.75)" letter-spacing="0.08em">WEB</text>
  <text x="48" y="372" font-family="system-ui,sans-serif" font-size="22" font-weight="700" fill="#FFFFFF">simple-error-templates</text>
  <circle cx="600" cy="360" r="4" fill="#3178C6" opacity="0.4"/>
  <circle cx="580" cy="380" r="3" fill="#3178C6" opacity="0.3"/>
  <circle cx="620" cy="370" r="2" fill="#3178C6" opacity="0.35"/>
</svg>
