<?xml version="1.0" encoding="UTF-8"?>
<svg xmlns="http://www.w3.org/2000/svg" width="640" height="400" viewBox="0 0 640 400" role="img" aria-label="twitter-auto-tweets">
  <defs>
    <linearGradient id="bg" x1="0%" y1="0%" x2="100%" y2="100%">
      <stop offset="0%" stop-color="#1DA1F2"/>
      <stop offset="100%" stop-color="#E3F2FD"/>
    </linearGradient>
  </defs>
  <rect width="640" height="400" fill="url(#bg)"/>
  <circle cx="560" cy="60" r="48" fill="#1DA1F2" opacity="0.15"/>
  <circle cx="80" cy="340" r="64" fill="#1DA1F2" opacity="0.12"/>
  <line x1="0" y1="320" x2="640" y2="280" stroke="#1DA1F2" stroke-width="1" opacity="0.2"/>
  <g transform="translate(48, 48) scale(4.5)" fill="#FFFFFF" opacity="0.92">
    <path fill="currentColor" d="M22 5.9c-.7.3-1.5.5-2.3.6.8-.5 1.4-1.2 1.7-2.1-.8.5-1.6.8-2.5 1-0.7-.8-1.8-1.3-3-1.3-2.3 0-4.1 1.8-4.1 4.1 0 .3 0 .6.1.9-3.4-.2-6.4-1.8-8.4-4.3-.4.6-.6 1.3-.6 2.1 0 1.4.7 2.7 1.8 3.4-.7 0-1.3-.2-1.9-.5v.1c0 2 1.4 3.6 3.3 4-.3.1-.7.2-1.1.2-.3 0-.5 0-.8-.1.5 1.5 1.9 2.6 3.5 2.6-1.3 1-2.9 1.6-4.7 1.6-.3 0-.6 0-.9-.1 1.7 1.1 3.7 1.7 5.9 1.7 7.1 0 11-5.9 11-11v-.5c.8-.5 1.4-1.2 1.9-2z"/>
  </g>
  <text x="48" y="340" font-family="system-ui,sans-serif" font-size="13" font-weight="600" fill="rgba(255,255,255,0.75)" letter-spacing="0.08em">SOCIAL</text>
  <text x="48" y="372" font-family="system-ui,sans-serif" font-size="22" font-weight="700" fill="#FFFFFF">twitter-auto-tweets</text>
  <circle cx="600" cy="360" r="4" fill="#1DA1F2" opacity="0.4"/>
  <circle cx="580" cy="380" r="3" fill="#1DA1F2" opacity="0.3"/>
  <circle cx="620" cy="370" r="2" fill="#1DA1F2" opacity="0.35"/>
</svg>
