<?xml version="1.0" encoding="UTF-8"?>
<svg xmlns="http://www.w3.org/2000/svg" width="400" height="280" viewBox="0 0 400 280" role="img" aria-label="Advanced WordPress: Action and Filter Hooks (2017)">
  <defs>
    <linearGradient id="bg" x1="0%" y1="0%" x2="100%" y2="100%">
      <stop offset="0%" stop-color="#21759B"/>
      <stop offset="100%" stop-color="#1D2327"/>
    </linearGradient>
  </defs>
  <rect width="400" height="280" rx="16" fill="url(#bg)"/>
  <circle cx="360" cy="40" r="60" fill="#FFFFFF" opacity="0.08"/>
  <circle cx="30" cy="250" r="50" fill="#FFFFFF" opacity="0.06"/>
  <g transform="translate(24, 28) scale(1.4)" fill="#FFFFFF" opacity="0.9">
    <path fill="currentColor" d="M12 2C6.5 2 2 6.5 2 12s4.5 10 10 10 10-4.5 10-10S17.5 2 12 2zm0 3c1.2 0 2.3.3 3.3.8L8.8 15.2A6.9 6.9 0 0112 5zM5 12c0-1 .2-2 .6-2.9l4.3 11.8A7 7 0 015 12zm7 7a6.9 6.9 0 01-3.3-.8l4.5-12.4A7 7 0 0119 12c0 3.9-3.1 7-7 7z"/>
  </g>
  <text x="24" y="228" font-family="system-ui,sans-serif" font-size="11" font-weight="600" fill="#FFFFFF" opacity="0.85">LinkedIn Learning</text>
  <text x="24" y="248" font-family="system-ui,sans-serif" font-size="11" fill="#FFFFFF" opacity="0.7">Issued 2020</text>
  <text x="24" y="145.6" font-family="system-ui,sans-serif" font-size="15" font-weight="700" fill="#FFFFFF">Advanced WordPress: Action and Filter</text>
  <text x="24" y="167.6" font-family="system-ui,sans-serif" font-size="15" font-weight="700" fill="#FFFFFF">Hooks (2017)</text>
  <rect x="344" y="244" width="32" height="20" rx="4" fill="#FFFFFF" opacity="0.2"/>
  <text x="360" y="258" text-anchor="middle" font-family="system-ui,sans-serif" font-size="9" font-weight="700" fill="#FFFFFF" opacity="0.9">CERT</text>
</svg>