<?xml version="1.0" encoding="UTF-8"?>
<svg xmlns="http://www.w3.org/2000/svg" width="320" height="320" viewBox="0 0 320 320" role="img" aria-label="Python Data Analysis">
  <defs>
    <linearGradient id="bg" x1="0%" y1="0%" x2="100%" y2="100%">
      <stop offset="0%" stop-color="#3776AB"/>
      <stop offset="100%" stop-color="#FFD43B"/>
    </linearGradient>
  </defs>
  <rect width="320" height="320" rx="16" fill="url(#bg)"/>
  <circle cx="280" cy="40" r="60" fill="#FFFFFF" opacity="0.08"/>
  <circle cx="30" cy="290" r="50" fill="#FFFFFF" opacity="0.06"/>
  <g transform="translate(24, 28) scale(1.4)" fill="#FFFFFF" opacity="0.9">
    <path fill="currentColor" d="M12 2C8 2 6 3.5 6 6v2h6V6.5c0-.3.2-.5.5-.5h3c.3 0 .5.2.5.5V9h2c2.5 0 4 1.5 4 4v1c0 2-1.5 3.5-4 3.5h-2v-2h2c1 0 1.5-.5 1.5-1.5V13c0-1-.5-1.5-1.5-1.5H6v5c0 2.5 1.5 4 4 4h2v-2H8c-1 0-1.5-.5-1.5-1.5V16h8v2c0 2.5-1.5 4-4 4H8c-3 0-6-1.5-6-4V6c0-2.5 3-4 6-4h4zm-1 3.5a1 1 0 100-2 1 1 0 000 2zm9 9.5a1 1 0 100-2 1 1 0 000 2z"/>
  </g>
  <text x="24" y="268" font-family="system-ui,sans-serif" font-size="11" font-weight="600" fill="#FFFFFF" opacity="0.85">LinkedIn Learning</text>
  <text x="24" y="288" font-family="system-ui,sans-serif" font-size="11" fill="#FFFFFF" opacity="0.7">Issued 2020</text>
  <text x="24" y="166.4" font-family="system-ui,sans-serif" font-size="15" font-weight="700" fill="#FFFFFF">Python Data Analysis</text>
  <rect x="264" y="284" width="32" height="20" rx="4" fill="#FFFFFF" opacity="0.2"/>
  <text x="280" y="298" text-anchor="middle" font-family="system-ui,sans-serif" font-size="9" font-weight="700" fill="#FFFFFF" opacity="0.9">CERT</text>
</svg>